# Blender 4.4.1
# www.blender.org
mtllib 9.mtl
o テキスト.009
v -0.206944 -0.593903 0.200000
v -0.066556 -0.469222 0.200000
v 0.051000 -0.339375 0.200000
v 0.144556 -0.206778 0.200000
v 0.212944 -0.073847 0.200000
v 0.255000 0.057000 0.200000
v 0.207694 0.031806 0.200000
v 0.156556 0.010444 0.200000
v 0.102750 -0.006750 0.200000
v 0.047444 -0.019444 0.200000
v -0.008194 -0.027306 0.200000
v -0.063000 -0.030000 0.200000
v -0.218389 -0.008903 0.200000
v -0.357111 0.050778 0.200000
v -0.474000 0.143625 0.200000
v -0.563889 0.264222 0.200000
v -0.621611 0.407153 0.200000
v -0.642000 0.567000 0.200000
v -0.622028 0.717097 0.200000
v -0.564222 0.858778 0.200000
v -0.471750 0.983625 0.200000
v -0.347778 1.083222 0.200000
v -0.195472 1.149153 0.200000
v -0.018000 1.173000 0.200000
v 0.161472 1.147458 0.200000
v 0.318778 1.074667 0.200000
v 0.449250 0.960375 0.200000
v 0.548222 0.810333 0.200000
v 0.611028 0.630292 0.200000
v 0.633000 0.426000 0.200000
v 0.605444 0.174319 0.200000
v 0.526556 -0.079444 0.200000
v 0.402000 -0.325875 0.200000
v 0.237444 -0.555556 0.200000
v 0.038556 -0.759070 0.200000
v -0.189000 -0.927000 0.200000
v -0.369000 -0.711000 0.200000
v 0.045833 0.251806 0.200000
v 0.095667 0.260444 0.200000
v 0.148500 0.275250 0.200000
v 0.203333 0.296556 0.200000
v 0.259167 0.324694 0.200000
v 0.315000 0.360000 0.200000
v 0.321320 0.393681 0.200000
v 0.325556 0.423445 0.200000
v 0.328125 0.450375 0.200000
v 0.329444 0.475556 0.200000
v 0.329931 0.500069 0.200000
v 0.330000 0.525000 0.200000
v 0.317792 0.621083 0.200000
v 0.283333 0.708667 0.200000
v 0.229875 0.783750 0.200000
v 0.160667 0.842333 0.200000
v 0.078958 0.880417 0.200000
v -0.012000 0.894000 0.200000
v -0.104597 0.883125 0.200000
v -0.185778 0.852000 0.200000
v -0.253125 0.802875 0.200000
v -0.304222 0.738000 0.200000
v -0.336653 0.659625 0.200000
v -0.348000 0.570000 0.200000
v -0.335556 0.484764 0.200000
v -0.300444 0.408111 0.200000
v -0.246000 0.343125 0.200000
v -0.175556 0.292889 0.200000
v -0.092444 0.260486 0.200000
v 0.000000 0.249000 0.200000
v -0.206944 -0.593903 -0.200000
v -0.066556 -0.469222 -0.200000
v 0.051000 -0.339375 -0.200000
v 0.144556 -0.206778 -0.200000
v 0.212944 -0.073847 -0.200000
v 0.255000 0.057000 -0.200000
v 0.207694 0.031806 -0.200000
v 0.156556 0.010444 -0.200000
v 0.102750 -0.006750 -0.200000
v 0.047444 -0.019444 -0.200000
v -0.008194 -0.027306 -0.200000
v -0.063000 -0.030000 -0.200000
v -0.218389 -0.008903 -0.200000
v -0.357111 0.050778 -0.200000
v -0.474000 0.143625 -0.200000
v -0.563889 0.264222 -0.200000
v -0.621611 0.407153 -0.200000
v -0.642000 0.567000 -0.200000
v -0.622028 0.717097 -0.200000
v -0.564222 0.858778 -0.200000
v -0.471750 0.983625 -0.200000
v -0.347778 1.083222 -0.200000
v -0.195472 1.149153 -0.200000
v -0.018000 1.173000 -0.200000
v 0.161472 1.147458 -0.200000
v 0.318778 1.074667 -0.200000
v 0.449250 0.960375 -0.200000
v 0.548222 0.810333 -0.200000
v 0.611028 0.630292 -0.200000
v 0.633000 0.426000 -0.200000
v 0.605444 0.174319 -0.200000
v 0.526556 -0.079444 -0.200000
v 0.402000 -0.325875 -0.200000
v 0.237444 -0.555556 -0.200000
v 0.038556 -0.759070 -0.200000
v -0.189000 -0.927000 -0.200000
v -0.369000 -0.711000 -0.200000
v 0.045833 0.251806 -0.200000
v 0.095667 0.260444 -0.200000
v 0.148500 0.275250 -0.200000
v 0.203333 0.296556 -0.200000
v 0.259167 0.324694 -0.200000
v 0.315000 0.360000 -0.200000
v 0.321320 0.393681 -0.200000
v 0.325556 0.423445 -0.200000
v 0.328125 0.450375 -0.200000
v 0.329444 0.475556 -0.200000
v 0.329931 0.500069 -0.200000
v 0.330000 0.525000 -0.200000
v 0.317792 0.621083 -0.200000
v 0.283333 0.708667 -0.200000
v 0.229875 0.783750 -0.200000
v 0.160667 0.842333 -0.200000
v 0.078958 0.880417 -0.200000
v -0.012000 0.894000 -0.200000
v -0.104597 0.883125 -0.200000
v -0.185778 0.852000 -0.200000
v -0.253125 0.802875 -0.200000
v -0.304222 0.738000 -0.200000
v -0.336653 0.659625 -0.200000
v -0.348000 0.570000 -0.200000
v -0.335556 0.484764 -0.200000
v -0.300444 0.408111 -0.200000
v -0.246000 0.343125 -0.200000
v -0.175556 0.292889 -0.200000
v -0.092444 0.260486 -0.200000
v 0.000000 0.249000 -0.200000
v -0.206944 -0.593903 -0.200000
v -0.206944 -0.593903 0.200000
v -0.066556 -0.469222 -0.200000
v -0.066556 -0.469222 0.200000
v 0.051000 -0.339375 -0.200000
v 0.051000 -0.339375 0.200000
v 0.144556 -0.206778 -0.200000
v 0.144556 -0.206778 0.200000
v 0.212944 -0.073847 -0.200000
v 0.212944 -0.073847 0.200000
v 0.255000 0.057000 -0.200000
v 0.255000 0.057000 0.200000
v 0.207694 0.031806 -0.200000
v 0.207694 0.031806 0.200000
v 0.156556 0.010444 -0.200000
v 0.156556 0.010444 0.200000
v 0.102750 -0.006750 -0.200000
v 0.102750 -0.006750 0.200000
v 0.047444 -0.019444 -0.200000
v 0.047444 -0.019444 0.200000
v -0.008194 -0.027306 -0.200000
v -0.008194 -0.027306 0.200000
v -0.063000 -0.030000 -0.200000
v -0.063000 -0.030000 0.200000
v -0.218389 -0.008903 -0.200000
v -0.218389 -0.008903 0.200000
v -0.357111 0.050778 -0.200000
v -0.357111 0.050778 0.200000
v -0.474000 0.143625 -0.200000
v -0.474000 0.143625 0.200000
v -0.563889 0.264222 -0.200000
v -0.563889 0.264222 0.200000
v -0.621611 0.407153 -0.200000
v -0.621611 0.407153 0.200000
v -0.642000 0.567000 -0.200000
v -0.642000 0.567000 0.200000
v -0.622028 0.717097 -0.200000
v -0.622028 0.717097 0.200000
v -0.564222 0.858778 -0.200000
v -0.564222 0.858778 0.200000
v -0.471750 0.983625 -0.200000
v -0.471750 0.983625 0.200000
v -0.347778 1.083222 -0.200000
v -0.347778 1.083222 0.200000
v -0.195472 1.149153 -0.200000
v -0.195472 1.149153 0.200000
v -0.018000 1.173000 -0.200000
v -0.018000 1.173000 0.200000
v 0.161472 1.147458 -0.200000
v 0.161472 1.147458 0.200000
v 0.318778 1.074667 -0.200000
v 0.318778 1.074667 0.200000
v 0.449250 0.960375 -0.200000
v 0.449250 0.960375 0.200000
v 0.548222 0.810333 -0.200000
v 0.548222 0.810333 0.200000
v 0.611028 0.630292 -0.200000
v 0.611028 0.630292 0.200000
v 0.633000 0.426000 -0.200000
v 0.633000 0.426000 0.200000
v 0.605444 0.174319 -0.200000
v 0.605444 0.174319 0.200000
v 0.526556 -0.079444 -0.200000
v 0.526556 -0.079444 0.200000
v 0.402000 -0.325875 -0.200000
v 0.402000 -0.325875 0.200000
v 0.237444 -0.555556 -0.200000
v 0.237444 -0.555556 0.200000
v 0.038556 -0.759070 -0.200000
v 0.038556 -0.759070 0.200000
v -0.189000 -0.927000 -0.200000
v -0.189000 -0.927000 0.200000
v -0.369000 -0.711000 -0.200000
v -0.369000 -0.711000 0.200000
v 0.045833 0.251806 -0.200000
v 0.045833 0.251806 0.200000
v 0.095667 0.260444 -0.200000
v 0.095667 0.260444 0.200000
v 0.148500 0.275250 -0.200000
v 0.148500 0.275250 0.200000
v 0.203333 0.296556 -0.200000
v 0.203333 0.296556 0.200000
v 0.259167 0.324694 -0.200000
v 0.259167 0.324694 0.200000
v 0.315000 0.360000 -0.200000
v 0.315000 0.360000 0.200000
v 0.321320 0.393681 -0.200000
v 0.321320 0.393681 0.200000
v 0.325556 0.423445 -0.200000
v 0.325556 0.423445 0.200000
v 0.328125 0.450375 -0.200000
v 0.328125 0.450375 0.200000
v 0.329444 0.475556 -0.200000
v 0.329444 0.475556 0.200000
v 0.329931 0.500069 -0.200000
v 0.329931 0.500069 0.200000
v 0.330000 0.525000 -0.200000
v 0.330000 0.525000 0.200000
v 0.317792 0.621083 -0.200000
v 0.317792 0.621083 0.200000
v 0.283333 0.708667 -0.200000
v 0.283333 0.708667 0.200000
v 0.229875 0.783750 -0.200000
v 0.229875 0.783750 0.200000
v 0.160667 0.842333 -0.200000
v 0.160667 0.842333 0.200000
v 0.078958 0.880417 -0.200000
v 0.078958 0.880417 0.200000
v -0.012000 0.894000 -0.200000
v -0.012000 0.894000 0.200000
v -0.104597 0.883125 -0.200000
v -0.104597 0.883125 0.200000
v -0.185778 0.852000 -0.200000
v -0.185778 0.852000 0.200000
v -0.253125 0.802875 -0.200000
v -0.253125 0.802875 0.200000
v -0.304222 0.738000 -0.200000
v -0.304222 0.738000 0.200000
v -0.336653 0.659625 -0.200000
v -0.336653 0.659625 0.200000
v -0.348000 0.570000 -0.200000
v -0.348000 0.570000 0.200000
v -0.335556 0.484764 -0.200000
v -0.335556 0.484764 0.200000
v -0.300444 0.408111 -0.200000
v -0.300444 0.408111 0.200000
v -0.246000 0.343125 -0.200000
v -0.246000 0.343125 0.200000
v -0.175556 0.292889 -0.200000
v -0.175556 0.292889 0.200000
v -0.092444 0.260486 -0.200000
v -0.092444 0.260486 0.200000
v 0.000000 0.249000 -0.200000
v 0.000000 0.249000 0.200000
vn -0.0000 -0.0000 1.0000
vn -0.0000 -0.0000 -1.0000
vn -0.6256 0.7801 -0.0000
vn -0.7037 0.7105 -0.0000
vn -0.7806 0.6250 -0.0000
vn -0.8552 0.5182 -0.0000
vn -0.9237 0.3830 -0.0000
vn -0.6413 -0.7673 -0.0000
vn 0.4282 -0.9037 -0.0000
vn 0.3452 -0.9385 -0.0000
vn 0.2643 -0.9644 -0.0000
vn 0.1820 -0.9833 -0.0000
vn 0.0946 -0.9955 -0.0000
vn -0.0429 -0.9991 -0.0000
vn -0.2673 -0.9636 -0.0000
vn -0.5131 -0.8583 -0.0000
vn -0.7179 -0.6962 -0.0000
vn -0.8717 -0.4901 -0.0000
vn -0.9676 -0.2526 -0.0000
vn -1.0000 0.0027 -0.0000
vn -0.9664 0.2569 -0.0000
vn -0.8715 0.4903 -0.0000
vn -0.7209 0.6931 -0.0000
vn -0.5164 0.8563 -0.0000
vn -0.2677 0.9635 -0.0000
vn 0.0039 1.0000 -0.0000
vn 0.2834 0.9590 -0.0000
vn 0.5450 0.8384 -0.0000
vn 0.7536 0.6573 -0.0000
vn 0.8963 0.4434 -0.0000
vn 0.9756 0.2196 -0.0000
vn 1.0000 -0.0010 -0.0000
vn 0.9790 -0.2038 -0.0000
vn 0.9269 -0.3753 -0.0000
vn 0.8552 -0.5183 -0.0000
vn 0.7663 -0.6425 -0.0000
vn 0.6566 -0.7542 -0.0000
vn -0.1199 -0.9928 -0.0000
vn -0.9922 0.1248 -0.0000
vn -0.1161 0.9932 -0.0000
vn -0.2206 0.9754 -0.0000
vn -0.3164 0.9486 -0.0000
vn -0.4066 0.9136 -0.0000
vn -0.4928 0.8701 -0.0000
vn -0.8275 0.5615 -0.0000
vn -0.9867 0.1627 -0.0000
vn -0.9930 0.1180 -0.0000
vn -0.9973 0.0737 -0.0000
vn -0.9993 0.0361 -0.0000
vn -0.9999 0.0113 -0.0000
vn -0.9981 -0.0618 -0.0000
vn -0.9688 -0.2480 -0.0000
vn -0.8791 -0.4766 -0.0000
vn -0.7361 -0.6769 -0.0000
vn -0.5390 -0.8423 -0.0000
vn -0.2881 -0.9576 -0.0000
vn -0.0157 -0.9999 -0.0000
vn 0.2392 -0.9710 -0.0000
vn 0.4778 -0.8785 -0.0000
vn 0.6939 -0.7200 -0.0000
vn 0.8629 -0.5053 -0.0000
vn 0.9666 -0.2562 -0.0000
vn 1.0000 0.0095 -0.0000
vn 0.9590 0.2833 -0.0000
vn 0.8454 0.5341 -0.0000
vn 0.6790 0.7341 -0.0000
vn 0.4756 0.8797 -0.0000
vn 0.2452 0.9695 -0.0000
vn 0.0312 0.9995 -0.0000
vt 0.333333 0.000000
vt 0.363636 0.000000
vt 0.348485 0.000000
vt 0.318182 0.000000
vt 0.378788 0.000000
vt 0.303030 0.000000
vt 0.393939 0.000000
vt 0.287879 0.000000
vt 0.818182 0.000000
vt 0.803030 0.000000
vt 0.409091 0.000000
vt 0.833333 0.000000
vt 0.848485 0.000000
vt 0.787879 0.000000
vt 0.272727 0.000000
vt 0.863636 0.000000
vt 0.772727 0.000000
vt 0.424242 0.000000
vt 0.878788 0.000000
vt 0.757576 0.000000
vt 0.893939 0.000000
vt 0.257576 0.000000
vt 0.742424 0.000000
vt 0.909091 0.000000
vt 0.439394 0.000000
vt 0.727273 0.000000
vt 0.924242 0.000000
vt 0.242424 0.000000
vt 0.712121 0.000000
vt 0.696970 0.000000
vt 0.939394 0.000000
vt 0.681818 0.000000
vt 0.666667 0.000000
vt 0.454545 0.000000
vt 0.651515 0.000000
vt 0.954545 0.000000
vt 0.227273 0.000000
vt 0.636364 0.000000
vt 0.621212 0.000000
vt 0.969697 0.000000
vt 0.606061 0.000000
vt 0.590909 0.000000
vt 0.984848 0.000000
vt 0.575758 0.000000
vt 0.212121 0.000000
vt 1.000000 0.000000
vt 0.560606 0.000000
vt 0.075758 0.000000
vt 0.469697 0.000000
vt 0.196970 0.000000
vt 0.090909 0.000000
vt 0.060606 0.000000
vt 0.181818 0.000000
vt 0.106061 0.000000
vt 0.121212 0.000000
vt 0.136364 0.000000
vt 0.166667 0.000000
vt 0.151515 0.000000
vt 0.045455 0.000000
vt 0.484848 0.000000
vt 0.030303 0.000000
vt 0.500000 0.000000
vt 0.015152 0.000000
vt 0.000000 0.000000
vt 0.515152 0.000000
vt 0.545455 0.000000
vt 0.530303 0.000000
vt 0.000000 1.000000
vt 0.027027 1.000000
vt 0.027027 0.000000
vt 0.054054 1.000000
vt 0.054054 0.000000
vt 0.081081 1.000000
vt 0.081081 0.000000
vt 0.108108 1.000000
vt 0.108108 0.000000
vt 0.135135 1.000000
vt 0.135135 0.000000
vt 0.162162 1.000000
vt 0.162162 0.000000
vt 0.189189 1.000000
vt 0.189189 0.000000
vt 0.216216 1.000000
vt 0.216216 0.000000
vt 0.243243 1.000000
vt 0.243243 0.000000
vt 0.270270 1.000000
vt 0.270270 0.000000
vt 0.297297 1.000000
vt 0.297297 0.000000
vt 0.324324 1.000000
vt 0.324324 0.000000
vt 0.351351 1.000000
vt 0.351351 0.000000
vt 0.378378 1.000000
vt 0.378378 0.000000
vt 0.405405 1.000000
vt 0.405405 0.000000
vt 0.432432 1.000000
vt 0.432432 0.000000
vt 0.459459 1.000000
vt 0.459459 0.000000
vt 0.486486 1.000000
vt 0.486486 0.000000
vt 0.513514 1.000000
vt 0.513514 0.000000
vt 0.540541 1.000000
vt 0.540541 0.000000
vt 0.567568 1.000000
vt 0.567568 0.000000
vt 0.594595 1.000000
vt 0.594595 0.000000
vt 0.621622 1.000000
vt 0.621622 0.000000
vt 0.648649 1.000000
vt 0.648649 0.000000
vt 0.675676 1.000000
vt 0.675676 0.000000
vt 0.702703 1.000000
vt 0.702703 0.000000
vt 0.729730 1.000000
vt 0.729730 0.000000
vt 0.756757 1.000000
vt 0.756757 0.000000
vt 0.783784 1.000000
vt 0.783784 0.000000
vt 0.810811 1.000000
vt 0.810811 0.000000
vt 0.837838 1.000000
vt 0.837838 0.000000
vt 0.864865 1.000000
vt 0.864865 0.000000
vt 0.891892 1.000000
vt 0.891892 0.000000
vt 0.918919 1.000000
vt 0.918919 0.000000
vt 0.945946 1.000000
vt 0.945946 0.000000
vt 0.972973 1.000000
vt 0.972973 0.000000
vt 1.000000 1.000000
vt 0.033333 1.000000
vt 0.033333 0.000000
vt 0.066667 1.000000
vt 0.066667 0.000000
vt 0.100000 1.000000
vt 0.100000 0.000000
vt 0.133333 1.000000
vt 0.133333 0.000000
vt 0.166667 1.000000
vt 0.200000 1.000000
vt 0.200000 0.000000
vt 0.233333 1.000000
vt 0.233333 0.000000
vt 0.266667 1.000000
vt 0.266667 0.000000
vt 0.300000 1.000000
vt 0.300000 0.000000
vt 0.333333 1.000000
vt 0.366667 1.000000
vt 0.366667 0.000000
vt 0.400000 1.000000
vt 0.400000 0.000000
vt 0.433333 1.000000
vt 0.433333 0.000000
vt 0.466667 1.000000
vt 0.466667 0.000000
vt 0.500000 1.000000
vt 0.533333 1.000000
vt 0.533333 0.000000
vt 0.566667 1.000000
vt 0.566667 0.000000
vt 0.600000 1.000000
vt 0.600000 0.000000
vt 0.633333 1.000000
vt 0.633333 0.000000
vt 0.666667 1.000000
vt 0.700000 1.000000
vt 0.700000 0.000000
vt 0.733333 1.000000
vt 0.733333 0.000000
vt 0.766667 1.000000
vt 0.766667 0.000000
vt 0.800000 1.000000
vt 0.800000 0.000000
vt 0.833333 1.000000
vt 0.866667 1.000000
vt 0.866667 0.000000
vt 0.900000 1.000000
vt 0.900000 0.000000
vt 0.933333 1.000000
vt 0.933333 0.000000
vt 0.966667 1.000000
vt 0.966667 0.000000
s 0
usemtl マテリアル.010
f 23/1/1 25/2/1 24/3/1
f 22/4/1 25/2/1 23/1/1
f 22/4/1 26/5/1 25/2/1
f 21/6/1 26/5/1 22/4/1
f 21/6/1 27/7/1 26/5/1
f 20/8/1 27/7/1 21/6/1
f 20/8/1 55/9/1 27/7/1
f 55/9/1 54/10/1 27/7/1
f 54/10/1 28/11/1 27/7/1
f 20/8/1 56/12/1 55/9/1
f 20/8/1 57/13/1 56/12/1
f 53/14/1 28/11/1 54/10/1
f 19/15/1 57/13/1 20/8/1
f 19/15/1 58/16/1 57/13/1
f 52/17/1 28/11/1 53/14/1
f 52/17/1 29/18/1 28/11/1
f 19/15/1 59/19/1 58/16/1
f 51/20/1 29/18/1 52/17/1
f 19/15/1 60/21/1 59/19/1
f 18/22/1 60/21/1 19/15/1
f 50/23/1 29/18/1 51/20/1
f 18/22/1 61/24/1 60/21/1
f 50/23/1 30/25/1 29/18/1
f 49/26/1 30/25/1 50/23/1
f 18/22/1 62/27/1 61/24/1
f 17/28/1 62/27/1 18/22/1
f 48/29/1 30/25/1 49/26/1
f 47/30/1 30/25/1 48/29/1
f 17/28/1 63/31/1 62/27/1
f 46/32/1 30/25/1 47/30/1
f 45/33/1 30/25/1 46/32/1
f 45/33/1 31/34/1 30/25/1
f 44/35/1 31/34/1 45/33/1
f 17/28/1 64/36/1 63/31/1
f 16/37/1 64/36/1 17/28/1
f 43/38/1 31/34/1 44/35/1
f 42/39/1 31/34/1 43/38/1
f 16/37/1 65/40/1 64/36/1
f 41/41/1 31/34/1 42/39/1
f 40/42/1 31/34/1 41/41/1
f 16/37/1 66/43/1 65/40/1
f 39/44/1 31/34/1 40/42/1
f 15/45/1 66/43/1 16/37/1
f 15/45/1 67/46/1 66/43/1
f 38/47/1 31/34/1 39/44/1
f 67/46/1 31/34/1 38/47/1
f 15/45/1 31/34/1 67/46/1
f 15/45/1 6/48/1 31/34/1
f 6/48/1 32/49/1 31/34/1
f 14/50/1 6/48/1 15/45/1
f 14/50/1 7/51/1 6/48/1
f 5/52/1 32/49/1 6/48/1
f 13/53/1 7/51/1 14/50/1
f 13/53/1 8/54/1 7/51/1
f 13/53/1 9/55/1 8/54/1
f 13/53/1 10/56/1 9/55/1
f 12/57/1 10/56/1 13/53/1
f 12/57/1 11/58/1 10/56/1
f 4/59/1 32/49/1 5/52/1
f 4/59/1 33/60/1 32/49/1
f 3/61/1 33/60/1 4/59/1
f 3/61/1 34/62/1 33/60/1
f 2/63/1 34/62/1 3/61/1
f 1/64/1 34/62/1 2/63/1
f 1/64/1 35/65/1 34/62/1
f 37/66/1 35/65/1 1/64/1
f 36/67/1 35/65/1 37/66/1
f 90/1/2 91/3/2 92/2/2
f 89/4/2 90/1/2 92/2/2
f 89/4/2 92/2/2 93/5/2
f 88/6/2 89/4/2 93/5/2
f 88/6/2 93/5/2 94/7/2
f 87/8/2 88/6/2 94/7/2
f 87/8/2 94/7/2 122/9/2
f 122/9/2 94/7/2 121/10/2
f 121/10/2 94/7/2 95/11/2
f 87/8/2 122/9/2 123/12/2
f 87/8/2 123/12/2 124/13/2
f 120/14/2 121/10/2 95/11/2
f 86/15/2 87/8/2 124/13/2
f 86/15/2 124/13/2 125/16/2
f 119/17/2 120/14/2 95/11/2
f 119/17/2 95/11/2 96/18/2
f 86/15/2 125/16/2 126/19/2
f 118/20/2 119/17/2 96/18/2
f 86/15/2 126/19/2 127/21/2
f 85/22/2 86/15/2 127/21/2
f 117/23/2 118/20/2 96/18/2
f 85/22/2 127/21/2 128/24/2
f 117/23/2 96/18/2 97/25/2
f 116/26/2 117/23/2 97/25/2
f 85/22/2 128/24/2 129/27/2
f 84/28/2 85/22/2 129/27/2
f 115/29/2 116/26/2 97/25/2
f 114/30/2 115/29/2 97/25/2
f 84/28/2 129/27/2 130/31/2
f 113/32/2 114/30/2 97/25/2
f 112/33/2 113/32/2 97/25/2
f 112/33/2 97/25/2 98/34/2
f 111/35/2 112/33/2 98/34/2
f 84/28/2 130/31/2 131/36/2
f 83/37/2 84/28/2 131/36/2
f 110/38/2 111/35/2 98/34/2
f 109/39/2 110/38/2 98/34/2
f 83/37/2 131/36/2 132/40/2
f 108/41/2 109/39/2 98/34/2
f 107/42/2 108/41/2 98/34/2
f 83/37/2 132/40/2 133/43/2
f 106/44/2 107/42/2 98/34/2
f 82/45/2 83/37/2 133/43/2
f 82/45/2 133/43/2 134/46/2
f 105/47/2 106/44/2 98/34/2
f 134/46/2 105/47/2 98/34/2
f 82/45/2 134/46/2 98/34/2
f 82/45/2 98/34/2 73/48/2
f 73/48/2 98/34/2 99/49/2
f 81/50/2 82/45/2 73/48/2
f 81/50/2 73/48/2 74/51/2
f 72/52/2 73/48/2 99/49/2
f 80/53/2 81/50/2 74/51/2
f 80/53/2 74/51/2 75/54/2
f 80/53/2 75/54/2 76/55/2
f 80/53/2 76/55/2 77/56/2
f 79/57/2 80/53/2 77/56/2
f 79/57/2 77/56/2 78/58/2
f 71/59/2 72/52/2 99/49/2
f 71/59/2 99/49/2 100/60/2
f 70/61/2 71/59/2 100/60/2
f 70/61/2 100/60/2 101/62/2
f 69/63/2 70/61/2 101/62/2
f 68/64/2 69/63/2 101/62/2
f 68/64/2 101/62/2 102/65/2
f 104/66/2 68/64/2 102/65/2
f 103/67/2 104/66/2 102/65/2
s 1
f 136/68/3 138/69/4 137/70/4 135/64/3
f 138/69/4 140/71/5 139/72/5 137/70/4
f 140/71/5 142/73/6 141/74/6 139/72/5
f 142/73/6 144/75/7 143/76/7 141/74/6
f 144/75/7 146/77/8 145/78/8 143/76/7
f 146/77/8 148/79/9 147/80/9 145/78/8
f 148/79/9 150/81/10 149/82/10 147/80/9
f 150/81/10 152/83/11 151/84/11 149/82/10
f 152/83/11 154/85/12 153/86/12 151/84/11
f 154/85/12 156/87/13 155/88/13 153/86/12
f 156/87/13 158/89/14 157/90/14 155/88/13
f 158/89/14 160/91/15 159/92/15 157/90/14
f 160/91/15 162/93/16 161/94/16 159/92/15
f 162/93/16 164/95/17 163/96/17 161/94/16
f 164/95/17 166/97/18 165/98/18 163/96/17
f 166/97/18 168/99/19 167/100/19 165/98/18
f 168/99/19 170/101/20 169/102/20 167/100/19
f 170/101/20 172/103/21 171/104/21 169/102/20
f 172/103/21 174/105/22 173/106/22 171/104/21
f 174/105/22 176/107/23 175/108/23 173/106/22
f 176/107/23 178/109/24 177/110/24 175/108/23
f 178/109/24 180/111/25 179/112/25 177/110/24
f 180/111/25 182/113/26 181/114/26 179/112/25
f 182/113/26 184/115/27 183/116/27 181/114/26
f 184/115/27 186/117/28 185/118/28 183/116/27
f 186/117/28 188/119/29 187/120/29 185/118/28
f 188/119/29 190/121/30 189/122/30 187/120/29
f 190/121/30 192/123/31 191/124/31 189/122/30
f 192/123/31 194/125/32 193/126/32 191/124/31
f 194/125/32 196/127/33 195/128/33 193/126/32
f 196/127/33 198/129/34 197/130/34 195/128/33
f 198/129/34 200/131/35 199/132/35 197/130/34
f 200/131/35 202/133/36 201/134/36 199/132/35
f 202/133/36 204/135/37 203/136/37 201/134/36
f 204/135/37 206/137/38 205/138/38 203/136/37
f 206/137/38 208/139/39 207/140/39 205/138/38
f 208/139/39 136/141/3 135/46/3 207/140/39
f 210/68/40 212/142/41 211/143/41 209/64/40
f 212/142/41 214/144/42 213/145/42 211/143/41
f 214/144/42 216/146/43 215/147/43 213/145/42
f 216/146/43 218/148/44 217/149/44 215/147/43
f 218/148/44 220/150/45 219/57/45 217/149/44
f 220/150/45 222/151/46 221/152/46 219/57/45
f 222/151/46 224/153/47 223/154/47 221/152/46
f 224/153/47 226/155/48 225/156/48 223/154/47
f 226/155/48 228/157/49 227/158/49 225/156/48
f 228/157/49 230/159/50 229/1/50 227/158/49
f 230/159/50 232/160/51 231/161/51 229/1/50
f 232/160/51 234/162/52 233/163/52 231/161/51
f 234/162/52 236/164/53 235/165/53 233/163/52
f 236/164/53 238/166/54 237/167/54 235/165/53
f 238/166/54 240/168/55 239/62/55 237/167/54
f 240/168/55 242/169/56 241/170/56 239/62/55
f 242/169/56 244/171/57 243/172/57 241/170/56
f 244/171/57 246/173/58 245/174/58 243/172/57
f 246/173/58 248/175/59 247/176/59 245/174/58
f 248/175/59 250/177/60 249/33/60 247/176/59
f 250/177/60 252/178/61 251/179/61 249/33/60
f 252/178/61 254/180/62 253/181/62 251/179/61
f 254/180/62 256/182/63 255/183/63 253/181/62
f 256/182/63 258/184/64 257/185/64 255/183/63
f 258/184/64 260/186/65 259/12/65 257/185/64
f 260/186/65 262/187/66 261/188/66 259/12/65
f 262/187/66 264/189/67 263/190/67 261/188/66
f 264/189/67 266/191/68 265/192/68 263/190/67
f 266/191/68 268/193/69 267/194/69 265/192/68
f 268/193/69 210/141/40 209/46/40 267/194/69
